<?xml version="1.0" standalone="no"?>
<!DOCTYPE svg PUBLIC "-//W3C//DTD SVG 20010904//EN"
 "http://www.w3.org/TR/2001/REC-SVG-20010904/DTD/svg10.dtd">
<svg version="1.0" xmlns="http://www.w3.org/2000/svg"
 width="1200.000000pt" height="1200.000000pt" viewBox="0 0 1200.000000 1200.000000"
 preserveAspectRatio="xMidYMid meet">

<g transform="translate(0.000000,1200.000000) scale(0.100000,-0.100000)"
fill="#000000" stroke="none">
<path d="M5585 10774 c-384 -38 -676 -92 -1000 -185 -1048 -300 -1966 -926
-2645 -1804 -111 -143 -292 -416 -382 -575 -345 -607 -553 -1241 -640 -1951
-20 -163 -22 -230 -22 -584 0 -354 2 -421 22 -584 129 -1054 538 -1979 1227
-2776 195 -225 471 -486 718 -679 977 -760 2208 -1142 3437 -1066 1497 93
2839 805 3760 1995 362 467 662 1053 834 1623 150 501 216 952 216 1487 0 273
-9 421 -41 670 -167 1319 -869 2541 -1932 3369 -648 504 -1400 841 -2210 991
-326 60 -430 68 -882 70 -231 2 -438 1 -460 -1z m572 -1055 c418 -57 797 -279
1077 -631 42 -54 91 -105 108 -114 37 -19 122 -15 253 11 110 21 385 30 514
16 606 -66 1125 -385 1454 -891 78 -121 133 -235 177 -369 54 -164 73 -284 73
-476 0 -178 -9 -254 -54 -466 -42 -194 -42 -195 73 -317 224 -238 344 -428
429 -682 62 -187 82 -328 77 -550 -5 -203 -29 -335 -90 -509 -175 -496 -587
-896 -1112 -1080 -137 -48 -210 -87 -271 -143 -90 -82 -124 -166 -150 -372 -9
-66 -25 -168 -36 -226 -26 -134 -157 -710 -167 -731 -6 -14 -32 -13 -257 7
-137 12 -353 32 -480 43 -425 38 -620 43 -1205 31 -749 -14 -1144 -26 -2291
-72 -613 -24 -617 -24 -678 28 -17 14 -36 45 -45 72 -13 40 -93 445 -201 1016
-29 156 -50 205 -97 234 -18 11 -89 34 -158 51 -572 137 -1006 461 -1249 931
-132 257 -190 503 -191 809 0 260 43 464 141 671 123 257 299 462 575 666 122
90 165 136 182 193 7 22 12 113 11 222 0 243 26 384 106 584 182 451 558 825
1009 1004 110 44 176 59 366 81 95 11 202 27 237 35 149 35 239 104 380 294
132 177 177 225 290 310 222 167 462 271 733 316 94 16 363 18 467 4z"/>
<path d="M6290 7953 c-12 -65 -37 -157 -55 -205 -63 -164 -79 -295 -51 -440
20 -103 39 -157 101 -283 73 -148 90 -170 60 -75 -58 185 -72 379 -36 490 11
33 20 49 24 40 3 -8 17 -123 32 -255 32 -295 30 -285 58 -285 19 0 28 18 74
148 116 327 137 436 109 579 -21 108 -70 211 -136 286 -44 49 -131 117 -151
117 -4 0 -17 -53 -29 -117z"/>
<path d="M7918 7980 c-25 -15 -1107 -1155 -1150 -1211 -85 -113 -125 -246
-112 -374 5 -44 9 -121 9 -170 0 -129 -30 -187 -178 -343 -62 -64 -165 -178
-230 -252 -65 -74 -122 -136 -126 -138 -3 -1 -459 530 -1011 1180 -553 651
-1027 1207 -1054 1236 -61 65 -95 70 -148 18 -85 -83 -94 -175 -34 -371 20
-66 50 -147 65 -181 34 -73 223 -407 339 -599 299 -493 781 -1131 1254 -1660
71 -79 123 -145 119 -152 -3 -6 -367 -417 -808 -913 -621 -698 -809 -915 -833
-962 -68 -138 -21 -291 107 -345 49 -20 149 -17 197 7 90 43 56 3 1281 1555
208 264 395 499 414 523 l35 42 32 -32 c17 -18 376 -472 797 -1009 421 -537
783 -990 803 -1008 145 -119 361 -50 404 129 14 59 1 136 -33 192 -21 35 -386
444 -1297 1456 -239 266 -443 498 -453 516 -13 25 -15 39 -8 59 5 14 84 117
174 230 91 113 205 259 255 324 141 187 163 200 348 213 132 10 208 30 309 83
101 54 190 150 377 405 95 131 308 421 475 645 320 432 329 447 281 481 -12 9
-25 16 -29 16 -3 0 -189 -206 -413 -459 -312 -351 -417 -463 -447 -476 -21
-10 -41 -16 -44 -14 -2 3 0 23 6 45 12 42 57 101 463 609 245 306 302 387 294
419 -2 12 -10 11 -48 -6 -38 -17 -105 -89 -430 -465 -211 -245 -394 -452 -407
-460 -29 -19 -63 -2 -63 33 0 18 108 159 395 512 400 494 425 529 379 546 -9
3 -26 0 -39 -6 -13 -7 -206 -221 -430 -476 -388 -441 -434 -486 -464 -467 -28
16 -9 62 58 145 451 559 712 895 709 914 -2 16 -11 22 -38 23 -19 2 -43 -2
-52 -7z"/>
<path d="M4895 7389 c21 -66 80 -188 121 -252 96 -147 232 -244 401 -284 67
-15 123 -18 405 -18 179 0 329 3 333 7 12 12 -33 65 -98 114 -117 89 -302 160
-484 186 l-88 12 60 19 c46 14 76 17 130 12 221 -20 384 -102 568 -287 l97
-98 -26 53 c-109 215 -287 376 -524 474 -121 50 -205 63 -458 68 -125 2 -276
7 -336 11 l-108 7 7 -24z"/>
<path d="M4235 6463 c-4 -10 -43 -121 -87 -248 -44 -126 -107 -297 -140 -379
-90 -224 -109 -308 -115 -506 -8 -259 29 -442 132 -658 60 -126 128 -228 210
-317 l55 -60 -56 118 c-116 247 -161 443 -151 656 7 149 33 266 82 366 33 66
115 173 100 130 -20 -58 -46 -179 -61 -278 -22 -149 -15 -385 16 -507 20 -83
83 -230 98 -230 13 0 133 266 220 485 133 334 162 447 162 627 0 185 -47 336
-157 501 -44 66 -276 317 -293 317 -4 0 -11 -8 -15 -17z"/>
<path d="M7853 6244 c-65 -65 -140 -152 -166 -192 -176 -264 -210 -518 -112
-838 37 -120 191 -505 266 -662 l60 -127 19 25 c26 33 75 160 90 232 42 209
22 541 -46 741 l-14 42 41 -45 c77 -87 128 -229 149 -419 24 -215 -34 -474
-164 -736 l-45 -90 59 62 c158 166 275 410 326 678 22 111 24 358 5 465 -17
96 -52 207 -109 345 -24 61 -85 225 -134 365 -49 140 -93 259 -98 264 -6 6
-56 -37 -127 -110z"/>
<path d="M2656 4953 c35 -156 61 -221 129 -323 125 -187 333 -315 580 -354 99
-15 354 -32 574 -38 l114 -3 10 29 c5 15 5 31 1 36 -5 4 -159 88 -343 186
-356 191 -367 201 -203 174 179 -29 355 -117 560 -283 45 -37 85 -67 88 -67
12 0 -98 132 -191 228 -120 125 -228 208 -344 266 -169 85 -255 104 -511 116
-133 6 -220 16 -309 34 -160 33 -163 33 -155 -1z"/>
<path d="M9405 4834 c-79 -17 -165 -27 -305 -34 -153 -7 -216 -14 -292 -34
-197 -50 -357 -146 -529 -316 -90 -89 -194 -210 -223 -258 -5 -8 39 24 97 70
136 107 253 180 358 223 95 38 228 68 285 63 36 -3 16 -15 -303 -187 -189
-101 -343 -185 -343 -186 0 -1 5 -15 10 -32 l11 -29 92 3 c560 20 684 38 854
119 216 103 376 296 434 521 10 42 19 82 19 90 0 18 -35 15 -165 -13z"/>
</g>
</svg>
